<svg width="48" height="48" viewBox="0 0 48 48" fill="none" xmlns="http://www.w3.org/2000/svg">
<path fill-rule="evenodd" clip-rule="evenodd" d="M24.0273 30.4926L40.192 46.6604C41.0497 47.5181 42.2131 48 43.4262 48C44.6392 48 45.8026 47.5181 46.6603 46.6604C47.5181 45.8026 47.9999 44.6393 47.9999 43.4262C47.9999 42.2132 47.5181 41.0498 46.6603 40.1921L30.4895 24.0274L46.6573 7.86267C47.0818 7.43796 47.4185 6.93379 47.6482 6.37895C47.8778 5.8241 47.996 5.22946 47.9958 4.62896C47.9957 4.02847 47.8773 3.43388 47.6473 2.87914C47.4174 2.32441 47.0805 1.8204 46.6557 1.39588C46.231 0.971367 45.7269 0.634663 45.172 0.404994C44.6172 0.175324 44.0225 0.0571874 43.422 0.0573289C42.8215 0.0574705 42.2269 0.175887 41.6722 0.405818C41.1175 0.635749 40.6135 0.972692 40.189 1.39741L24.0273 17.5621L7.86262 1.39741C7.44104 0.96051 6.93667 0.611946 6.37895 0.372056C5.82122 0.132166 5.2213 0.00575164 4.6142 0.000191744C4.00709 -0.00536815 3.40496 0.110036 2.84293 0.339672C2.2809 0.569307 1.77024 0.908575 1.34073 1.33768C0.911219 1.76678 0.57147 2.27713 0.341304 2.83894C0.111139 3.40075 -0.00483313 4.00278 0.000154291 4.60989C0.00514171 5.217 0.130988 5.81703 0.370353 6.37499C0.609717 6.93294 0.957804 7.43764 1.3943 7.85963L17.5651 24.0274L1.39735 40.1921C0.539602 41.0498 0.0577217 42.2132 0.0577217 43.4262C0.0577217 44.6393 0.539602 45.8026 1.39735 46.6604C2.25511 47.5181 3.41847 48 4.63151 48C5.84456 48 7.00792 47.5181 7.86567 46.6604L24.0273 30.4896V30.4926Z" fill="currentColor"/>
</svg>
